<?xml version="1.0" encoding="UTF-8" standalone="no"?>
<!DOCTYPE svg PUBLIC "-//W3C//DTD SVG 1.1//EN" "http://www.w3.org/Graphics/SVG/1.1/DTD/svg11.dtd">
<svg version="1.1" xmlns="http://www.w3.org/2000/svg" xmlns:xlink="http://www.w3.org/1999/xlink" preserveAspectRatio="xMidYMid meet" viewBox="0 0 640 640" width="640" height="640"><defs><path d="M225.41 96.94C225.41 79.24 211.11 64.94 193.41 64.94C175.71 64.94 161.41 79.24 161.41 96.94C161.41 100.14 161.41 125.74 161.41 128.94C161.41 146.64 175.71 160.94 193.41 160.94C211.11 160.94 225.41 146.64 225.41 128.94C225.41 125.74 225.41 100.14 225.41 96.94Z" id="b2u0oFD6lE"></path><path d="M225.41 96.94C225.41 79.24 211.11 64.94 193.41 64.94C175.71 64.94 161.41 79.24 161.41 96.94C161.41 100.14 161.41 125.74 161.41 128.94C161.41 146.64 175.71 160.94 193.41 160.94C211.11 160.94 225.41 146.64 225.41 128.94C225.41 125.74 225.41 100.14 225.41 96.94Z" id="f3yfzq6Vh0"></path><path d="M449.41 96.94C449.41 79.24 435.11 64.94 417.41 64.94C399.71 64.94 385.41 79.24 385.41 96.94C385.41 100.14 385.41 125.74 385.41 128.94C385.41 146.64 399.71 160.94 417.41 160.94C435.11 160.94 449.41 146.64 449.41 128.94C449.41 125.74 449.41 100.14 449.41 96.94Z" id="a3Uw3usyNx"></path><path d="M449.41 96.94C449.41 79.24 435.11 64.94 417.41 64.94C399.71 64.94 385.41 79.24 385.41 96.94C385.41 100.14 385.41 125.74 385.41 128.94C385.41 146.64 399.71 160.94 417.41 160.94C435.11 160.94 449.41 146.64 449.41 128.94C449.41 125.74 449.41 100.14 449.41 96.94Z" id="a2o9xR7PuA"></path><path d="M465.41 137.64C465.41 160.14 442.21 176.94 418.21 176.94C394.21 176.94 369.41 160.14 369.41 137.64C369.41 134.93 369.41 121.36 369.41 96.94C356.61 96.94 254.21 96.94 241.41 96.94C241.41 121.36 241.41 134.93 241.41 137.64C241.41 160.14 217.41 176.94 193.41 176.94C169.41 176.94 145.41 160.14 145.41 137.64C145.41 134.93 145.41 121.36 145.41 96.94C111.81 96.94 93.14 96.94 89.41 96.94C85.01 96.94 81.41 100.54 81.41 104.94C81.41 144.94 81.41 464.94 81.41 504.94C81.41 509.34 85.01 512.94 89.41 512.94C132.61 512.94 478.21 512.94 521.41 512.94C525.81 512.94 529.41 509.34 529.41 504.94C529.41 464.94 529.41 144.94 529.41 104.94C529.41 100.54 525.81 96.94 521.41 96.94C513.94 96.94 495.28 96.94 465.41 96.94C465.41 121.36 465.41 134.93 465.41 137.64ZM129.41 208.94L481.41 208.94L481.41 464.94L129.41 464.94L129.41 208.94Z" id="b1ykJpqXd"></path><path d="M477.18 157.64C477.18 180.14 453.98 196.94 429.98 196.94C405.98 196.94 381.18 180.14 381.18 157.64C381.18 154.93 381.18 141.36 381.18 116.94C368.38 116.94 265.98 116.94 253.18 116.94C253.18 141.36 253.18 154.93 253.18 157.64C253.18 180.14 229.18 196.94 205.18 196.94C181.18 196.94 157.18 180.14 157.18 157.64C157.18 154.93 157.18 141.36 157.18 116.94C123.58 116.94 104.91 116.94 101.18 116.94C96.78 116.94 93.18 120.54 93.18 124.94C93.18 164.94 93.18 484.94 93.18 524.94C93.18 529.34 96.78 532.94 101.18 532.94C144.38 532.94 489.98 532.94 533.18 532.94C537.58 532.94 541.18 529.34 541.18 524.94C541.18 484.94 541.18 164.94 541.18 124.94C541.18 120.54 537.58 116.94 533.18 116.94C525.71 116.94 507.05 116.94 477.18 116.94C477.18 141.36 477.18 154.93 477.18 157.64ZM141.18 228.94L493.18 228.94L493.18 484.94L141.18 484.94L141.18 228.94Z" id="b2s3jxhRPk"></path></defs><g><g><g><use xlink:href="#b2u0oFD6lE" opacity="1" fill="#ffffff" fill-opacity="1"></use><g><use xlink:href="#b2u0oFD6lE" opacity="1" fill-opacity="0" stroke="#000000" stroke-width="1" stroke-opacity="0"></use></g></g><g><use xlink:href="#f3yfzq6Vh0" opacity="1" fill="#000000" fill-opacity="0"></use><g><use xlink:href="#f3yfzq6Vh0" opacity="1" fill-opacity="0" stroke="#000000" stroke-width="1" stroke-opacity="0"></use></g></g><g><use xlink:href="#a3Uw3usyNx" opacity="1" fill="#ffffff" fill-opacity="1"></use><g><use xlink:href="#a3Uw3usyNx" opacity="1" fill-opacity="0" stroke="#000000" stroke-width="1" stroke-opacity="0"></use></g></g><g><use xlink:href="#a2o9xR7PuA" opacity="1" fill="#000000" fill-opacity="0"></use><g><use xlink:href="#a2o9xR7PuA" opacity="1" fill-opacity="0" stroke="#000000" stroke-width="1" stroke-opacity="0"></use></g></g><g><use xlink:href="#b1ykJpqXd" opacity="1" fill="#ffffff" fill-opacity="1"></use><g><use xlink:href="#b1ykJpqXd" opacity="1" fill-opacity="0" stroke="#000000" stroke-width="1" stroke-opacity="0"></use></g></g><g><use xlink:href="#b2s3jxhRPk" opacity="1" fill="#000000" fill-opacity="0"></use><g><use xlink:href="#b2s3jxhRPk" opacity="1" fill-opacity="0" stroke="#000000" stroke-width="1" stroke-opacity="0"></use></g></g></g></g></svg>