<svg id="Capa_1" enable-background="new 0 0 475.298 475.298" height="512" viewBox="0 0 475.298 475.298" width="512" xmlns="http://www.w3.org/2000/svg"><path d="m473.729 186.443-59.411-118.823c-2.089-4.177-6.034-7.136-10.632-7.963l-163.383-29.706c-1.741-.319-3.568-.319-5.309 0l-163.381 29.706c-4.598.827-8.543 3.786-10.632 7.963l-59.412 118.823c-2.785 5.555-1.799 12.271 2.451 16.797l222.794 237.647c2.814 3.003 6.73 4.7 10.835 4.7s8.021-1.697 10.835-4.7l222.794-237.647c4.25-4.525 5.236-11.241 2.451-16.797zm-153.096 21.497-82.984 173.521-82.984-173.521zm-158.427-29.706 75.443-107.776 75.443 107.776zm108.327-112.599 108.704 19.765-38.506 80.518c0-.001-70.198-100.283-70.198-100.283zm-135.966 100.282-38.506-80.518 108.704-19.765c0 .001-70.198 100.283-70.198 100.283zm-27.044 12.317h-68.633l35.08-70.158zm14.207 29.705 75.601 158.073-148.19-158.073zm231.838 0h72.589l-148.19 158.073zm14.207-29.705 33.553-70.158 35.08 70.158z"/></svg>