<?xml version="1.0" encoding="UTF-8" standalone="no"?>
<!DOCTYPE svg PUBLIC "-//W3C//DTD SVG 1.1//EN" "http://www.w3.org/Graphics/SVG/1.1/DTD/svg11.dtd">
<svg version="1.1" xmlns="http://www.w3.org/2000/svg" xmlns:xlink="http://www.w3.org/1999/xlink" preserveAspectRatio="xMidYMid meet" viewBox="0 0 640 640" width="640" height="640"><defs><path d="M511.55 133.89C493.95 130.69 353.15 105.09 335.55 101.89C333.67 101.55 331.71 101.55 329.83 101.89C312.23 105.09 171.43 130.69 153.83 133.89C148.88 134.78 144.63 137.97 142.38 142.47C135.98 155.27 84.78 257.67 78.38 270.47C75.38 276.45 76.44 283.69 81.02 288.56C105.02 314.16 297.02 518.96 321.02 544.56C324.05 547.8 328.27 549.62 332.69 549.62C337.11 549.62 341.33 547.8 344.36 544.56C368.36 518.96 560.36 314.16 584.36 288.56C588.94 283.69 590 276.45 587 270.47C574.2 244.87 529.4 155.27 523 142.47C520.75 137.97 516.5 134.78 511.55 133.89ZM332.69 480.55L243.3 293.63L422.08 293.63L332.69 480.55ZM332.69 145.53L413.96 261.63L251.42 261.63L332.69 145.53ZM443.73 248.36C443.73 248.36 368.11 140.33 368.11 140.33C383.73 143.17 422.76 150.27 485.21 161.62C460.32 213.67 446.5 242.58 443.73 248.36ZM297.27 140.33C297.27 140.33 221.65 248.36 221.65 248.36C216.12 236.79 202.29 207.88 180.17 161.62C250.43 148.85 289.46 141.75 297.27 140.33ZM118.58 261.63L156.37 186.05L192.52 261.63L118.58 261.63ZM289.26 463.91L129.63 293.63L207.82 293.63L289.26 463.91ZM535.75 293.63L376.12 463.91L457.56 293.63L535.75 293.63ZM509.01 186.05L546.8 261.63L472.86 261.63L509.01 186.05Z" id="bXe8P2UbP"></path><path d="M511.55 133.89C493.95 130.69 353.15 105.09 335.55 101.89C333.67 101.55 331.71 101.55 329.83 101.89C312.23 105.09 171.43 130.69 153.83 133.89C148.88 134.78 144.63 137.97 142.38 142.47C135.98 155.27 84.78 257.67 78.38 270.47C75.38 276.45 76.44 283.69 81.02 288.56C105.02 314.16 297.02 518.96 321.02 544.56C324.05 547.8 328.27 549.62 332.69 549.62C337.11 549.62 341.33 547.8 344.36 544.56C368.36 518.96 560.36 314.16 584.36 288.56C588.94 283.69 590 276.45 587 270.47C574.2 244.87 529.4 155.27 523 142.47C520.75 137.97 516.5 134.78 511.55 133.89ZM332.69 480.55L243.3 293.63L422.08 293.63L332.69 480.55ZM332.69 145.53L413.96 261.63L251.42 261.63L332.69 145.53ZM443.73 248.36C443.73 248.36 368.11 140.33 368.11 140.33C383.73 143.17 422.76 150.27 485.21 161.62C460.32 213.67 446.5 242.58 443.73 248.36ZM297.27 140.33C297.27 140.33 221.65 248.36 221.65 248.36C216.12 236.79 202.29 207.88 180.17 161.62C250.43 148.85 289.46 141.75 297.27 140.33ZM118.58 261.63L156.37 186.05L192.52 261.63L118.58 261.63ZM289.26 463.91L129.63 293.63L207.82 293.63L289.26 463.91ZM535.75 293.63L376.12 463.91L457.56 293.63L535.75 293.63ZM509.01 186.05L546.8 261.63L472.86 261.63L509.01 186.05Z" id="a3N6BRq5Rt"></path></defs><g><g><g><use xlink:href="#bXe8P2UbP" opacity="1" fill="#ffffff" fill-opacity="1"></use><g><use xlink:href="#bXe8P2UbP" opacity="1" fill-opacity="0" stroke="#000000" stroke-width="1" stroke-opacity="0"></use></g></g><g><use xlink:href="#a3N6BRq5Rt" opacity="1" fill="#000000" fill-opacity="0"></use><g><use xlink:href="#a3N6BRq5Rt" opacity="1" fill-opacity="0" stroke="#000000" stroke-width="1" stroke-opacity="0"></use></g></g></g></g></svg>