<?xml version="1.0" encoding="UTF-8" standalone="no"?>
<!DOCTYPE svg PUBLIC "-//W3C//DTD SVG 1.1//EN" "http://www.w3.org/Graphics/SVG/1.1/DTD/svg11.dtd">
<svg version="1.1" xmlns="http://www.w3.org/2000/svg" xmlns:xlink="http://www.w3.org/1999/xlink" preserveAspectRatio="xMidYMid meet" viewBox="0 0 640 640" width="640" height="640"><defs><path d="M176 96C176 92.8 176 67.2 176 64C176 46.3 161.7 32 144 32C126.3 32 112 46.3 112 64C112 67.2 112 92.8 112 96C112 113.7 126.3 128 144 128C161.7 128 176 113.7 176 96Z" id="fQUuk6Cmn"></path><path d="M400 96C400 92.8 400 67.2 400 64C400 46.3 385.7 32 368 32C350.3 32 336 46.3 336 64C336 67.2 336 92.8 336 96C336 113.7 350.3 128 368 128C385.7 128 400 113.7 400 96Z" id="i4SZkNTfze"></path><path d="M416 64C416 88.42 416 101.99 416 104.7C416 127.2 392.8 144 368.8 144C344.8 144 320 127.2 320 104.7C320 101.99 320 88.42 320 64L192 64C192 88.42 192 101.99 192 104.7C192 127.2 168 144 144 144C120 144 96 127.2 96 104.7C96 101.99 96 88.42 96 64C62.4 64 43.73 64 40 64C35.6 64 32 67.6 32 72C32 112 32 432 32 472C32 476.4 35.6 480 40 480C83.2 480 428.8 480 472 480C476.4 480 480 476.4 480 472C480 432 480 112 480 72C480 67.6 476.4 64 472 64C464.53 64 445.87 64 416 64ZM80 432L80 176L432 176L432 432L80 432Z" id="a5VhUDoHgH"></path></defs><g><g><g><use xlink:href="#fQUuk6Cmn" opacity="1" fill="#ffffff" fill-opacity="1"></use><g><use xlink:href="#fQUuk6Cmn" opacity="1" fill-opacity="0" stroke="#000000" stroke-width="1" stroke-opacity="0"></use></g></g><g><use xlink:href="#i4SZkNTfze" opacity="1" fill="#ffffff" fill-opacity="1"></use><g><use xlink:href="#i4SZkNTfze" opacity="1" fill-opacity="0" stroke="#000000" stroke-width="1" stroke-opacity="0"></use></g></g><g><use xlink:href="#a5VhUDoHgH" opacity="1" fill="#ffffff" fill-opacity="1"></use><g><use xlink:href="#a5VhUDoHgH" opacity="1" fill-opacity="0" stroke="#000000" stroke-width="1" stroke-opacity="0"></use></g></g></g></g></svg>