<?xml version="1.0" encoding="UTF-8" standalone="no"?>
<!DOCTYPE svg PUBLIC "-//W3C//DTD SVG 1.1//EN" "http://www.w3.org/Graphics/SVG/1.1/DTD/svg11.dtd">
<svg version="1.1" xmlns="http://www.w3.org/2000/svg" xmlns:xlink="http://www.w3.org/1999/xlink" preserveAspectRatio="xMidYMid meet" viewBox="0 0 640 640" width="640" height="640"><defs><path d="M446.31 72.84C444.06 68.34 439.81 65.15 434.86 64.26C417.26 61.06 276.46 35.46 258.86 32.26C256.98 31.92 255.02 31.92 253.14 32.26C235.54 35.46 94.74 61.06 77.14 64.26C72.19 65.15 67.94 68.34 65.69 72.84C59.29 85.64 8.09 188.04 1.69 200.84C-1.31 206.82 -0.25 214.06 4.33 218.93C28.33 244.53 220.33 449.33 244.33 474.93C247.36 478.17 251.58 479.99 256 479.99C260.42 479.99 264.64 478.17 267.67 474.93C291.67 449.33 483.67 244.53 507.67 218.93C512.25 214.06 513.31 206.82 510.31 200.84C497.51 175.24 452.71 85.64 446.31 72.84ZM345.39 224L256 410.92L166.61 224L345.39 224ZM174.73 192L256 75.9L337.27 192L174.73 192ZM408.52 91.99C383.63 144.04 369.81 172.95 367.04 178.73C367.04 178.73 291.42 70.7 291.42 70.7C307.04 73.54 346.07 80.64 408.52 91.99ZM103.48 91.99C173.74 79.22 212.77 72.12 220.58 70.7C220.58 70.7 144.96 178.73 144.96 178.73C139.43 167.16 125.6 138.25 103.48 91.99ZM115.83 192L41.89 192L79.68 116.42L115.83 192ZM131.13 224L212.57 394.28L52.94 224L131.13 224ZM380.87 224L459.06 224L299.43 394.28L380.87 224ZM396.17 192L432.32 116.42L470.11 192L396.17 192Z" id="bh9HXGPRR"></path></defs><g><g><g><use xlink:href="#bh9HXGPRR" opacity="1" fill="#ffffff" fill-opacity="1"></use><g><use xlink:href="#bh9HXGPRR" opacity="1" fill-opacity="0" stroke="#000000" stroke-width="1" stroke-opacity="0"></use></g></g></g></g></svg>