<?xml version="1.0" encoding="UTF-8" standalone="no"?>
<!DOCTYPE svg PUBLIC "-//W3C//DTD SVG 1.1//EN" "http://www.w3.org/Graphics/SVG/1.1/DTD/svg11.dtd">
<svg version="1.1" xmlns="http://www.w3.org/2000/svg" xmlns:xlink="http://www.w3.org/1999/xlink" preserveAspectRatio="xMidYMid meet" viewBox="0 0 640 640" width="640" height="640"><defs><path d="M400.04 272.19C395.87 276.35 362.52 309.69 358.35 313.85C347.5 324.69 334.42 324.71 326.79 315.7C321.73 309.74 323.73 291.33 325.14 279.65C327.24 262.47 343.96 124.99 346.05 107.81C347.92 92.45 336.98 77.62 321.62 75.75C306.26 73.89 292.3 85.69 290.43 101.04C288.12 114.54 269.68 222.52 267.37 236.02C266.17 239.38 263.58 239.96 263.29 235.44C262.5 217.9 256.22 77.54 255.44 60C255.44 44.54 242.9 32 227.43 32C211.95 32 199.41 44.54 199.41 60C199.36 77.68 198.91 219.08 198.86 236.75C199.01 238.79 197.26 239.38 196.94 237.05C194.45 223.25 174.51 112.87 172.02 99.08C169.27 83.86 154.69 72.87 139.47 75.62C124.24 78.37 114.13 93.81 116.88 109.03C119.1 125.17 136.85 254.34 139.07 270.48C139.09 273.35 138.13 274.99 136.76 271.31C133.45 262.46 106.96 191.65 103.65 182.8C98.47 168.22 82.46 159.73 67.88 164.91C53.3 170.08 45.68 186.97 50.85 201.54C56.66 220.5 103.09 372.2 108.9 391.16C109.2 392.21 109.52 393.25 109.85 394.28C109.86 394.32 109.96 394.63 109.97 394.67C109.98 394.7 109.99 394.73 110 394.76C126.08 444.23 172.57 480 227.43 480C262.54 480 299.02 467.62 326.78 446.33C326.78 446.33 326.79 446.33 326.79 446.33C356.78 428.28 452.86 324.98 452.86 324.98C467.45 310.4 465.27 288.08 450.68 273.5C436.09 258.92 414.63 257.61 400.04 272.19Z" id="a22yOHOi61"></path></defs><g><g><g><use xlink:href="#a22yOHOi61" opacity="1" fill="#ffffff" fill-opacity="1"></use><g><use xlink:href="#a22yOHOi61" opacity="1" fill-opacity="0" stroke="#000000" stroke-width="1" stroke-opacity="0"></use></g></g></g></g></svg>